<svg width="389" height="88" viewBox="0 0 389 88" fill="none" xmlns="http://www.w3.org/2000/svg">
<g clip-path="url(#clip0_723_873)">
<rect width="389" height="88" fill="black"/>
<path d="M85.8882 0.879395L37.1222 71.2516C32.6404 77.7225 25.3188 81.5757 17.5031 81.5757H10.8203C4.84116 81.5757 0 76.6785 0 70.6414V0.879395H16.6247V73.4557L66.9129 0.879395H85.8882Z" fill="white"/>
<path d="M158.281 17.0237L149.268 5.38326C147.067 2.53872 143.693 0.879397 140.119 0.879397H129.888C98.9396 0.874353 92.6461 8.97425 77.6085 30.7017L62.0819 53.1101C59.4966 56.8423 59.6264 61.8404 62.4063 65.4314L71.4148 77.0668C73.6208 79.9114 76.9946 81.5757 80.5681 81.5757H90.6497C120.949 81.5757 127.622 73.8138 142.006 53.0899C142.39 52.6713 158.606 29.345 158.606 29.345C161.191 25.6128 161.056 20.6096 158.281 17.0237ZM124.563 50.9263C114.042 66.1072 109.096 65.6281 92.2668 65.6281L72.4529 65.6685L98.6302 27.8774L98.6401 27.8622C107.459 16.4235 112.924 16.822 128.271 16.822L148.235 16.7867C148.235 16.7867 125.212 49.9831 124.563 50.9263Z" fill="white"/>
<path d="M190.457 0.879395H209.427L153.514 81.5757H134.539L190.457 0.879395Z" fill="white"/>
<path d="M273.85 38.9075C273.85 38.9075 268.41 46.6796 263.988 53.1051C249.704 73.8743 242.942 81.5757 212.647 81.5757H165.853L221.77 0.879395H247.484L258.528 16.8169H229.701L195.918 65.5726L214.264 65.6281C231.093 65.6281 236.039 66.1072 246.56 50.9263C247.279 49.8822 264.298 25.3657 264.298 25.3657C264.323 25.3304 264.348 25.29 264.378 25.2547L273.85 38.9075Z" fill="white"/>
<path d="M321.483 0.884325C315.799 0.990239 310.488 3.83478 307.219 8.55552L295.575 25.3555L266.224 -17H247.309L286.078 39.0688L256.622 81.5756H275.542L295.526 52.7317L333.052 107H352.152L305.038 39.0083L331.6 0.879282C331.6 0.879282 321.593 0.879281 321.483 0.884325Z" fill="white"/>
<path d="M316.258 16.8169L349.712 16.8068L376.777 16.7867L376.757 16.8169L359.823 41.2578H345.744C342.784 41.2578 340.009 42.7154 338.313 45.1666L332.523 53.5237C330.996 55.7277 330.996 58.658 332.523 60.862L346.877 81.5757H365.797L348.903 57.1954L356.579 57.2054C363.631 57.2155 370.239 53.7405 374.287 47.9052L387.143 29.345C389.734 25.6128 389.599 20.6096 386.824 17.0237L377.81 5.38326C375.609 2.53871 372.236 0.879395 368.662 0.879395H327.333L316.258 16.8169Z" fill="white"/>
</g>
<defs>
<clipPath id="clip0_723_873">
<rect width="389" height="124" fill="white" transform="translate(0 -17)"/>
</clipPath>
</defs>
</svg>
