<?xml version="1.0" encoding="UTF-8"?>
<svg id="Layer_2" data-name="Layer 2" xmlns="http://www.w3.org/2000/svg" viewBox="0 0 779.42 210.41">
  <defs>
    <style>
      .cls-1 {
        fill: #fff;
      }

      .cls-2 {
        fill: #0b0b0b;
      }
    </style>
  </defs>
  <rect class="cls-2" y="0" width="779.42" height="210.41"/>
  <g id="Background">
    <path class="cls-1" d="M649.35,0c-.22,0-.44,0-.66,0h.66s0,0,0,0Z"/>
  </g>
  <g id="V">
    <path class="cls-1" d="M172.09,0l-97.71,139.53c-8.98,12.83-23.65,20.47-39.31,20.47h-13.39c-11.98,0-21.68-9.71-21.68-21.68V0h33.31v143.9L134.07,0h38.02,0Z"/>
  </g>
  <g id="O">
    <path class="cls-1" d="M317.14,32.01l-18.06-23.08C294.67,3.29,287.91,0,280.75,0h-20.5c-62.01,0-74.62,16.05-104.75,59.13l-31.11,44.43c-5.18,7.4-4.92,17.31.65,24.43l18.05,23.07c4.42,5.64,11.18,8.94,18.34,8.94h20.2c60.71,0,74.08-15.39,102.9-56.48.77-.83,33.26-47.08,33.26-47.08,5.18-7.4,4.91-17.32-.65-24.43h0ZM249.58,99.23c-21.08,30.1-30.99,29.15-64.71,29.15l-39.7.08,52.45-74.93.02-.03c17.67-22.68,28.62-21.89,59.37-21.89l40-.07s-46.13,65.82-47.43,67.69h0Z"/>
  </g>
  <g id="I">
    <polygon class="cls-1" points="381.61 0 419.62 0 307.59 160 269.57 160 381.61 0"/>
  </g>
  <g id="D">
    <path class="cls-1" d="M548.7,75.4s-10.9,15.41-19.76,28.15c-28.62,41.18-42.17,56.45-102.87,56.45h-93.76L444.35,0h51.52l22.13,31.6h-57.76l-67.69,96.67,36.76.11c33.72,0,43.63.95,64.71-29.15,1.44-2.07,35.54-50.68,35.54-50.68.05-.07.1-.15.16-.22l18.98,27.07h0Z"/>
  </g>
  <g id="X">
    <path class="cls-1" d="M705.59,210.41h-38.27l-75.19-107.6-40.04,57.19h-37.91l59.02-84.28L520.29,0h37.96l33.98,48.53,23.33-33.31c6.55-9.36,17.19-15,28.58-15.21.11,0,5.18,0,10.22,0h10.05l-53.22,75.6,94.4,134.81Z"/>
  </g>
  <g id="R">
    <path class="cls-1" d="M633.67,31.6l67.03-.02,54.23-.04-.04.06-33.93,48.46h-28.21c-5.93,0-11.49,2.89-14.89,7.75l-11.6,16.57c-3.06,4.37-3.06,10.18,0,14.55l28.76,41.07h37.91l-33.85-48.34,15.38.02c14.13.02,27.37-6.87,35.48-18.44l25.76-36.8c5.19-7.4,4.92-17.32-.64-24.43l-18.06-23.08C752.59,3.29,745.83,0,738.67,0h-82.81l-22.19,31.6h0Z"/>
  </g>
</svg>