<svg width="125" height="40" viewBox="0 0 125 40" fill="none" xmlns="http://www.w3.org/2000/svg">
<g style="mix-blend-mode:difference" clip-path="url(#clip0_585_7395)">
<path d="M103.761 5.76758C103.726 5.76758 103.691 5.76758 103.656 5.76913H103.657L103.761 5.76758Z" fill="white"/>
<path d="M27.4987 5.76758L11.8854 28.4683C10.4504 30.5557 8.10627 31.7987 5.60392 31.7987H3.4643C1.54999 31.7987 0 30.2189 0 28.2714V5.76758H5.32269V29.1793L21.4234 5.76758H27.4987Z" fill="white"/>
<path d="M50.6766 10.9754L47.7907 7.22044C47.0861 6.30284 46.0059 5.76758 44.8617 5.76758H41.586C31.6773 5.76595 29.6623 8.37882 24.8477 15.3877L19.8766 22.6162C19.0489 23.8201 19.0904 25.4324 19.9805 26.5908L22.8647 30.3442C23.571 31.2618 24.6512 31.7987 25.7953 31.7987H29.0231C38.7241 31.7987 40.8605 29.2948 45.4658 22.6097C45.5888 22.4746 50.7805 14.95 50.7805 14.95C51.6082 13.7461 51.565 12.1322 50.6766 10.9754ZM39.881 21.9117C36.5126 26.8088 34.929 26.6543 29.5408 26.6543L23.1971 26.6673L31.5782 14.4766L31.5814 14.4717C34.4049 10.7818 36.1546 10.9103 41.0683 10.9103L47.46 10.899C47.46 10.899 40.0887 21.6075 39.881 21.9117Z" fill="white"/>
<path d="M60.9783 5.76758H67.0521L49.1505 31.7987H43.0752L60.9783 5.76758Z" fill="white"/>
<path d="M87.6781 18.0347C87.6781 18.0347 85.9363 20.5418 84.5206 22.6146C79.9473 29.3143 77.7821 31.7987 68.0827 31.7987H53.1006L71.0037 5.76758H79.2362L82.7725 10.9087H73.5428L62.7265 26.6364L68.6005 26.6543C73.9887 26.6543 75.5722 26.8088 78.9406 21.9117C79.1707 21.5749 84.6197 13.6664 84.6197 13.6664C84.6276 13.655 84.6356 13.642 84.6452 13.6306L87.6781 18.0347Z" fill="white"/>
<path d="M102.929 5.76914C101.109 5.8033 99.4083 6.7209 98.3617 8.24372L94.6337 13.6631L85.2363 0H79.1802L91.5929 18.0867L82.1619 31.7986H88.2196L94.6177 22.4941L106.633 40H112.748L97.6634 18.0672L106.168 5.76751C106.168 5.76751 102.964 5.76751 102.929 5.76914Z" fill="white"/>
<path d="M101.256 10.9087L111.967 10.9055L120.632 10.899L120.626 10.9087L115.204 18.7929H110.696C109.749 18.7929 108.86 19.2631 108.317 20.0538L106.464 22.7496C105.975 23.4606 105.975 24.4058 106.464 25.1168L111.059 31.7987H117.117L111.708 23.934L114.166 23.9373C116.423 23.9405 118.539 22.8196 119.835 20.9372L123.951 14.95C124.781 13.7461 124.737 12.1322 123.849 10.9754L120.963 7.22044C120.258 6.30284 119.178 5.76758 118.034 5.76758H104.802L101.256 10.9087Z" fill="white"/>
</g>
<defs>
<clipPath id="clip0_585_7395">
<rect width="124.545" height="40" fill="white"/>
</clipPath>
</defs>
</svg>
